<svg xmlns="http://www.w3.org/2000/svg" xmlns:xlink="http://www.w3.org/1999/xlink" width="1080" zoomAndPan="magnify" viewBox="0 0 810 809.999993" height="1080" preserveAspectRatio="xMidYMid meet" version="1.0"><defs><g/></defs><rect x="-81" width="972" fill="#ffffff" y="-80.999999" height="971.999992" fill-opacity="1"/><rect x="-81" width="972" fill="#ffffff" y="-80.999999" height="971.999992" fill-opacity="1"/><path stroke-linecap="butt" transform="matrix(0.75, 0, 0, 0.75, 181.920434, 184.310519)" fill="none" stroke-linejoin="miter" d="M 21.001923 -0.00256664 L 21.001923 120.992231 C 21.001923 162.414108 54.58005 195.992235 96.001927 195.992235 L 498.876947 195.992235 C 540.298824 195.992235 573.876951 229.570362 573.876951 270.992239 L 573.876951 705.252677 " stroke="#382263" stroke-width="42" stroke-opacity="1" stroke-miterlimit="4"/><path stroke-linecap="round" transform="matrix(0.75, 0, 0, 0.75, 181.920434, 184.310519)" fill="none" stroke-linejoin="round" d="M 636.876954 621.252673 L 573.876951 705.252677 L 510.876948 621.252673 " stroke="#382263" stroke-width="42" stroke-opacity="1" stroke-miterlimit="4"/><g fill="#382263" fill-opacity="1"><g transform="translate(62.225459, 165.06004)"><g><path d="M 21.890625 -4.40625 C 21.628906 -2.332031 20.726562 -0.910156 19.1875 -0.140625 C 17.65625 0.617188 15.554688 1 12.890625 1 C 10.097656 1 8.203125 0.46875 7.203125 -0.59375 C 6.203125 -1.664062 5.800781 -3.300781 6 -5.5 C 6.800781 -12.695312 7.429688 -19.242188 7.890625 -25.140625 C 8.359375 -31.046875 8.675781 -36.5625 8.84375 -41.6875 C 9.007812 -46.820312 9.078125 -51.789062 9.046875 -56.59375 C 9.015625 -61.394531 8.929688 -66.289062 8.796875 -71.28125 C 8.734375 -73.21875 9.453125 -74.671875 10.953125 -75.640625 C 12.453125 -76.609375 14.734375 -77.09375 17.796875 -77.09375 C 20.460938 -77.09375 22.34375 -76.65625 23.4375 -75.78125 C 24.539062 -74.914062 25.523438 -73.648438 26.390625 -71.984375 C 28.265625 -68.390625 29.96875 -65.109375 31.5 -62.140625 C 33.03125 -59.171875 34.5625 -56.253906 36.09375 -53.390625 C 37.625 -50.523438 39.289062 -47.441406 41.09375 -44.140625 C 42.894531 -40.835938 44.925781 -37.054688 47.1875 -32.796875 C 49.925781 -36.722656 52.3125 -40.238281 54.34375 -43.34375 C 56.375 -46.445312 58.207031 -49.429688 59.84375 -52.296875 C 61.476562 -55.160156 63.160156 -58.175781 64.890625 -61.34375 C 66.617188 -64.507812 68.550781 -68.09375 70.6875 -72.09375 C 71.550781 -73.488281 72.566406 -74.585938 73.734375 -75.390625 C 74.898438 -76.191406 76.785156 -76.59375 79.390625 -76.59375 C 82.117188 -76.59375 83.984375 -76.070312 84.984375 -75.03125 C 85.984375 -74 86.519531 -72.6875 86.59375 -71.09375 C 86.65625 -66.289062 86.6875 -61.6875 86.6875 -57.28125 C 86.6875 -52.882812 86.648438 -48.453125 86.578125 -43.984375 C 86.515625 -39.523438 86.414062 -34.695312 86.28125 -29.5 C 86.15625 -25.03125 85.988281 -20.59375 85.78125 -16.1875 C 85.582031 -11.789062 85.316406 -7.695312 84.984375 -3.90625 C 84.847656 -1.90625 84.128906 -0.503906 82.828125 0.296875 C 81.535156 1.097656 79.6875 1.5 77.28125 1.5 C 74.414062 1.5 72.398438 1.097656 71.234375 0.296875 C 70.066406 -0.503906 69.550781 -1.90625 69.6875 -3.90625 L 70.484375 -17.796875 C 70.617188 -20.328125 70.71875 -22.625 70.78125 -24.6875 C 70.851562 -26.757812 70.921875 -28.726562 70.984375 -30.59375 C 71.054688 -32.457031 71.109375 -34.421875 71.140625 -36.484375 C 71.171875 -38.554688 71.21875 -40.925781 71.28125 -43.59375 C 69.019531 -39.59375 66.957031 -36.160156 65.09375 -33.296875 C 63.226562 -30.429688 61.425781 -27.78125 59.6875 -25.34375 C 57.957031 -22.914062 56.023438 -20.332031 53.890625 -17.59375 C 53.023438 -16.457031 51.925781 -15.554688 50.59375 -14.890625 C 49.257812 -14.222656 47.757812 -13.890625 46.09375 -13.890625 C 44.488281 -13.890625 43.101562 -14.140625 41.9375 -14.640625 C 40.769531 -15.140625 39.722656 -16.191406 38.796875 -17.796875 C 37.390625 -20.191406 36.132812 -22.320312 35.03125 -24.1875 C 33.9375 -26.0625 32.875 -27.878906 31.84375 -29.640625 C 30.8125 -31.410156 29.695312 -33.359375 28.5 -35.484375 C 27.300781 -37.617188 25.898438 -40.222656 24.296875 -43.296875 C 24.234375 -38.765625 24.148438 -34.78125 24.046875 -31.34375 C 23.941406 -27.914062 23.789062 -24.785156 23.59375 -21.953125 C 23.394531 -19.117188 23.144531 -16.316406 22.84375 -13.546875 C 22.539062 -10.785156 22.222656 -7.738281 21.890625 -4.40625 Z M 21.890625 -4.40625 "/></g></g></g><g fill="#382263" fill-opacity="1"><g transform="translate(155.810785, 165.06004)"><g><path d="M 28.796875 0.40625 C 24.191406 0.40625 20.253906 -0.359375 16.984375 -1.890625 C 13.722656 -3.429688 11.039062 -5.453125 8.9375 -7.953125 C 6.84375 -10.453125 5.3125 -13.285156 4.34375 -16.453125 C 3.382812 -19.617188 2.90625 -22.800781 2.90625 -26 C 2.90625 -29.53125 3.585938 -33.007812 4.953125 -36.4375 C 6.316406 -39.875 8.25 -43.007812 10.75 -45.84375 C 13.25 -48.675781 16.210938 -50.957031 19.640625 -52.6875 C 23.078125 -54.425781 26.894531 -55.296875 31.09375 -55.296875 C 34.820312 -55.296875 37.9375 -54.710938 40.4375 -53.546875 C 42.9375 -52.378906 44.835938 -50.726562 46.140625 -48.59375 C 47.441406 -46.457031 48.09375 -43.925781 48.09375 -41 C 48.09375 -37.863281 47.425781 -35.09375 46.09375 -32.6875 C 44.757812 -30.289062 42.859375 -28.257812 40.390625 -26.59375 C 37.390625 -24.59375 34.191406 -23.109375 30.796875 -22.140625 C 27.398438 -21.179688 23.703125 -20.566406 19.703125 -20.296875 C 20.296875 -18.898438 21.054688 -17.617188 21.984375 -16.453125 C 22.921875 -15.285156 24.070312 -14.332031 25.4375 -13.59375 C 26.8125 -12.863281 28.429688 -12.5 30.296875 -12.5 C 32.628906 -12.5 34.726562 -13.082031 36.59375 -14.25 C 38.457031 -15.414062 40.09375 -16.765625 41.5 -18.296875 C 42.289062 -19.160156 42.988281 -19.707031 43.59375 -19.9375 C 44.195312 -20.175781 44.726562 -20.296875 45.1875 -20.296875 C 46.125 -20.296875 47.054688 -19.960938 47.984375 -19.296875 C 48.921875 -18.628906 49.769531 -17.828125 50.53125 -16.890625 C 51.300781 -15.960938 51.753906 -15 51.890625 -14 C 52.160156 -13.0625 52.078125 -12.125 51.640625 -11.1875 C 51.203125 -10.257812 50.753906 -9.5625 50.296875 -9.09375 C 47.828125 -6.425781 44.742188 -4.175781 41.046875 -2.34375 C 37.347656 -0.507812 33.265625 0.40625 28.796875 0.40625 Z M 19 -31.1875 C 20.800781 -31.320312 22.285156 -31.503906 23.453125 -31.734375 C 24.617188 -31.972656 26 -32.425781 27.59375 -33.09375 C 29.195312 -33.695312 30.5625 -34.628906 31.6875 -35.890625 C 32.820312 -37.160156 33.390625 -38.660156 33.390625 -40.390625 C 33.390625 -41.054688 33.238281 -41.65625 32.9375 -42.1875 C 32.644531 -42.726562 32.195312 -43.164062 31.59375 -43.5 C 30.988281 -43.832031 30.222656 -44 29.296875 -44 C 28.023438 -44 26.789062 -43.582031 25.59375 -42.75 C 24.394531 -41.914062 23.34375 -40.832031 22.4375 -39.5 C 21.539062 -38.164062 20.789062 -36.765625 20.1875 -35.296875 C 19.59375 -33.828125 19.195312 -32.457031 19 -31.1875 Z M 19 -31.1875 "/></g></g></g><g fill="#382263" fill-opacity="1"><g transform="translate(210.102286, 165.06004)"><g><path d="M 7.203125 -51.296875 C 7.535156 -53.085938 8.367188 -54.332031 9.703125 -55.03125 C 11.035156 -55.738281 13 -56.09375 15.59375 -56.09375 C 18.125 -56.09375 19.941406 -55.59375 21.046875 -54.59375 C 22.148438 -53.59375 22.703125 -52.554688 22.703125 -51.484375 C 22.703125 -50.953125 22.632812 -50.253906 22.5 -49.390625 C 22.363281 -48.523438 22.242188 -47.554688 22.140625 -46.484375 C 22.046875 -45.421875 21.960938 -44.289062 21.890625 -43.09375 C 22.765625 -44.894531 23.816406 -46.726562 25.046875 -48.59375 C 26.273438 -50.457031 27.988281 -52.003906 30.1875 -53.234375 C 32.394531 -54.472656 35.265625 -55.09375 38.796875 -55.09375 C 44.660156 -55.09375 49.054688 -52.972656 51.984375 -48.734375 C 54.921875 -44.503906 56.390625 -38.957031 56.390625 -32.09375 C 56.390625 -28.5625 56.15625 -25.242188 55.6875 -22.140625 C 55.21875 -19.046875 54.75 -16.046875 54.28125 -13.140625 C 53.820312 -10.242188 53.59375 -7.296875 53.59375 -4.296875 C 53.59375 -2.898438 52.890625 -1.617188 51.484375 -0.453125 C 50.085938 0.710938 47.925781 1.296875 45 1.296875 C 42.125 1.296875 40.101562 0.695312 38.9375 -0.5 C 37.769531 -1.695312 37.1875 -3.128906 37.1875 -4.796875 C 37.1875 -7.796875 37.453125 -10.578125 37.984375 -13.140625 C 38.523438 -15.710938 39.046875 -18.332031 39.546875 -21 C 40.046875 -23.664062 40.296875 -26.664062 40.296875 -30 C 40.296875 -32.664062 40.078125 -34.75 39.640625 -36.25 C 39.210938 -37.75 38.546875 -38.847656 37.640625 -39.546875 C 36.742188 -40.242188 35.660156 -40.59375 34.390625 -40.59375 C 32.992188 -40.59375 31.695312 -40.09375 30.5 -39.09375 C 29.300781 -38.09375 28.203125 -36.789062 27.203125 -35.1875 C 26.203125 -33.59375 25.332031 -31.84375 24.59375 -29.9375 C 23.863281 -28.039062 23.234375 -26.191406 22.703125 -24.390625 C 22.898438 -20.722656 23.015625 -17.085938 23.046875 -13.484375 C 23.078125 -9.890625 22.992188 -6.695312 22.796875 -3.90625 C 22.734375 -2.5 22.050781 -1.257812 20.75 -0.1875 C 19.445312 0.875 17.363281 1.40625 14.5 1.40625 C 11.894531 1.40625 9.976562 1.003906 8.75 0.203125 C 7.519531 -0.597656 6.71875 -1.648438 6.34375 -2.953125 C 5.976562 -4.253906 5.796875 -5.632812 5.796875 -7.09375 C 5.796875 -9.425781 5.894531 -11.890625 6.09375 -14.484375 C 6.300781 -17.085938 6.671875 -19.625 7.203125 -22.09375 C 7.066406 -25.757812 6.945312 -29.054688 6.84375 -31.984375 C 6.75 -34.921875 6.679688 -37.585938 6.640625 -39.984375 C 6.609375 -42.390625 6.625 -44.523438 6.6875 -46.390625 C 6.757812 -48.253906 6.929688 -49.890625 7.203125 -51.296875 Z M 7.203125 -51.296875 "/></g></g></g><g fill="#382263" fill-opacity="1"><g transform="translate(271.792632, 165.06004)"><g><path d="M 22.703125 1.296875 C 19.703125 1.296875 17.097656 0.679688 14.890625 -0.546875 C 12.691406 -1.785156 10.875 -3.503906 9.4375 -5.703125 C 8.007812 -7.898438 6.960938 -10.460938 6.296875 -13.390625 C 5.628906 -16.328125 5.296875 -19.492188 5.296875 -22.890625 C 5.296875 -27.960938 5.5625 -32.613281 6.09375 -36.84375 C 6.632812 -41.070312 7.300781 -45.320312 8.09375 -49.59375 C 8.300781 -50.988281 9.066406 -52.234375 10.390625 -53.328125 C 11.722656 -54.429688 13.828125 -54.984375 16.703125 -54.984375 C 19.628906 -54.984375 21.707031 -54.347656 22.9375 -53.078125 C 24.175781 -51.816406 24.660156 -50.222656 24.390625 -48.296875 C 23.992188 -45.828125 23.5625 -43.472656 23.09375 -41.234375 C 22.625 -39.003906 22.222656 -36.601562 21.890625 -34.03125 C 21.554688 -31.46875 21.390625 -28.421875 21.390625 -24.890625 C 21.390625 -22.492188 21.554688 -20.425781 21.890625 -18.6875 C 22.222656 -16.957031 22.789062 -15.609375 23.59375 -14.640625 C 24.394531 -13.679688 25.492188 -13.203125 26.890625 -13.203125 C 28.296875 -13.203125 29.597656 -13.703125 30.796875 -14.703125 C 31.992188 -15.703125 33.09375 -17 34.09375 -18.59375 C 35.09375 -20.195312 35.972656 -21.945312 36.734375 -23.84375 C 37.503906 -25.75 38.125 -27.597656 38.59375 -29.390625 C 38.457031 -33.128906 38.375 -36.78125 38.34375 -40.34375 C 38.3125 -43.90625 38.363281 -47.085938 38.5 -49.890625 C 38.625 -51.359375 39.335938 -52.59375 40.640625 -53.59375 C 41.941406 -54.59375 43.992188 -55.09375 46.796875 -55.09375 C 49.328125 -55.09375 51.191406 -54.738281 52.390625 -54.03125 C 53.585938 -53.332031 54.382812 -52.414062 54.78125 -51.28125 C 55.1875 -50.15625 55.390625 -48.925781 55.390625 -47.59375 C 55.453125 -46.457031 55.46875 -45.253906 55.4375 -43.984375 C 55.40625 -42.722656 55.335938 -41.390625 55.234375 -39.984375 C 55.140625 -38.585938 54.988281 -37.1875 54.78125 -35.78125 C 54.582031 -34.382812 54.351562 -32.988281 54.09375 -31.59375 C 54.226562 -24.925781 54.257812 -19.425781 54.1875 -15.09375 C 54.125 -10.757812 54.054688 -6.925781 53.984375 -3.59375 C 53.921875 -1.800781 53.171875 -0.539062 51.734375 0.1875 C 50.304688 0.925781 48.226562 1.296875 45.5 1.296875 C 42.894531 1.296875 41.078125 0.796875 40.046875 -0.203125 C 39.015625 -1.203125 38.5 -2.234375 38.5 -3.296875 C 38.5 -3.960938 38.5625 -4.660156 38.6875 -5.390625 C 38.820312 -6.128906 38.957031 -6.984375 39.09375 -7.953125 C 39.226562 -8.921875 39.257812 -10.003906 39.1875 -11.203125 C 38.59375 -9.929688 37.878906 -8.578125 37.046875 -7.140625 C 36.210938 -5.710938 35.175781 -4.347656 33.9375 -3.046875 C 32.707031 -1.742188 31.175781 -0.695312 29.34375 0.09375 C 27.507812 0.894531 25.296875 1.296875 22.703125 1.296875 Z M 22.703125 1.296875 "/></g></g></g></svg>